{
  "asset": {
    "generator": "glTF-Transform v4.0.10",
    "version": "2.0",
    "extras": {
      "author": "Ay23man (https://sketchfab.com/ay23man)",
      "license": "CC-BY-4.0 (http://creativecommons.org/licenses/by/4.0/)",
      "source": "https://sketchfab.com/3d-models/satellites-1dfb3bb50daa4f6f94fdcad1321ce50f",
      "title": "Satellites"
    }
  },
  "accessors": [
    {
      "type": "VEC3",
      "componentType": 5126,
      "count": 892,
      "max": [
        1.6411733627319336,
        6.658304214477539,
        2.3183016777038574
      ],
      "min": [
        -0.3390239179134369,
        -6.629368782043457,
        0.289239764213562
      ],
      "bufferView": 0,
      "byteOffset": 0
    },
    {
      "type": "VEC3",
      "componentType": 5126,
      "count": 892,
      "bufferView": 0,
      "byteOffset": 12
    },
    {
      "type": "VEC4",
      "componentType": 5126,
      "count": 892,
      "bufferView": 0,
      "byteOffset": 24
    },
    {
      "type": "VEC2",
      "componentType": 5126,
      "count": 892,
      "bufferView": 0,
      "byteOffset": 40
    },
    {
      "type": "SCALAR",
      "componentType": 5125,
      "count": 2592,
      "bufferView": 1,
      "byteOffset": 0
    },
    {
      "type": "SCALAR",
      "componentType": 5125,
      "count": 12,
      "bufferView": 1,
      "byteOffset": 10368
    },
    {
      "type": "SCALAR",
      "componentType": 5125,
      "count": 3546,
      "bufferView": 1,
      "byteOffset": 10416
    },
    {
      "type": "VEC3",
      "componentType": 5126,
      "count": 8,
      "max": [
        0.510859489440918,
        6.658304214477539,
        1.929696798324585
      ],
      "min": [
        -0.1937134861946106,
        -6.629368782043457,
        0.9100804924964905
      ],
      "bufferView": 2,
      "byteOffset": 0
    },
    {
      "type": "VEC3",
      "componentType": 5126,
      "count": 8,
      "bufferView": 2,
      "byteOffset": 12
    },
    {
      "type": "VEC4",
      "componentType": 5126,
      "count": 8,
      "bufferView": 2,
      "byteOffset": 24
    },
    {
      "type": "VEC2",
      "componentType": 5126,
      "count": 8,
      "bufferView": 2,
      "byteOffset": 40
    },
    {
      "type": "VEC3",
      "componentType": 5126,
      "count": 1234,
      "max": [
        0.4574148952960968,
        1.3375142812728882,
        4.247775554656982
      ],
      "min": [
        -2.5425848960876465,
        -1.3085790872573853,
        0.003378152847290039
      ],
      "bufferView": 3,
      "byteOffset": 0
    },
    {
      "type": "VEC3",
      "componentType": 5126,
      "count": 1234,
      "bufferView": 3,
      "byteOffset": 12
    },
    {
      "type": "VEC4",
      "componentType": 5126,
      "count": 1234,
      "bufferView": 3,
      "byteOffset": 24
    },
    {
      "type": "VEC2",
      "componentType": 5126,
      "count": 1234,
      "bufferView": 3,
      "byteOffset": 40
    }
  ],
  "bufferViews": [
    {
      "buffer": 0,
      "byteOffset": 0,
      "byteLength": 42816,
      "byteStride": 48,
      "target": 34962
    },
    {
      "buffer": 0,
      "byteOffset": 42816,
      "byteLength": 24600,
      "target": 34963
    },
    {
      "buffer": 0,
      "byteOffset": 67416,
      "byteLength": 384,
      "byteStride": 48,
      "target": 34962
    },
    {
      "buffer": 0,
      "byteOffset": 67800,
      "byteLength": 59232,
      "byteStride": 48,
      "target": 34962
    }
  ],
  "samplers": [
    {
      "magFilter": 9729,
      "minFilter": 9987,
      "wrapS": 10497,
      "wrapT": 10497
    }
  ],
  "textures": [
    {
      "source": 0,
      "sampler": 0
    },
    {
      "source": 1,
      "sampler": 0
    },
    {
      "source": 2,
      "sampler": 0
    },
    {
      "source": 3,
      "sampler": 0
    },
    {
      "source": 4,
      "sampler": 0
    },
    {
      "source": 6,
      "sampler": 0
    },
    {
      "source": 7,
      "sampler": 0
    },
    {
      "source": 5,
      "sampler": 0
    }
  ],
  "images": [
    {
      "mimeType": "image/png",
      "uri": "textures/Course_Satellites_-_2_Mtl_baseColor.png"
    },
    {
      "mimeType": "image/png",
      "uri": "textures/Course_Satellites_-_2_Mtl_normal.png"
    },
    {
      "mimeType": "image/png",
      "uri": "textures/Course_Satellites_-_1_Texture_baseColor.png"
    },
    {
      "mimeType": "image/png",
      "uri": "textures/Course_Satellites_-_1_Texture_metallicRoughness.png"
    },
    {
      "mimeType": "image/png",
      "uri": "textures/Course_Satellites_-_1_Mtl_baseColor.png"
    },
    {
      "mimeType": "image/png",
      "uri": "textures/Course_Satellites_-_1_Mtl_metallicRoughness.png"
    },
    {
      "mimeType": "image/png",
      "uri": "textures/Course_Satellites_-_1_Mtl_emissive.png"
    },
    {
      "mimeType": "image/png",
      "uri": "textures/Course_Satellites_-_1_Mtl_normal.png"
    }
  ],
  "buffers": [
    {
      "uri": "scene.bin",
      "byteLength": 127032
    }
  ],
  "materials": [
    {
      "name": "Course_Satellites_-_2_Mtl",
      "doubleSided": true,
      "pbrMetallicRoughness": {
        "roughnessFactor": 0.31176470588235294,
        "baseColorTexture": {
          "index": 0
        }
      },
      "normalTexture": {
        "index": 1
      }
    },
    {
      "name": "Course_Satellites_-_1_Texture",
      "doubleSided": true,
      "pbrMetallicRoughness": {
        "baseColorTexture": {
          "index": 2
        },
        "metallicRoughnessTexture": {
          "index": 3
        }
      }
    },
    {
      "name": "Course_Satellites_-_1_Mtl",
      "doubleSided": true,
      "pbrMetallicRoughness": {
        "baseColorTexture": {
          "index": 4
        },
        "metallicRoughnessTexture": {
          "index": 7
        }
      },
      "emissiveFactor": [
        1,
        1,
        1
      ],
      "emissiveTexture": {
        "index": 5
      },
      "normalTexture": {
        "index": 6
      }
    }
  ],
  "meshes": [
    {
      "name": "Course Satellites_Model_Course Satellites - 2_Mtl_0",
      "primitives": [
        {
          "attributes": {
            "NORMAL": 1,
            "POSITION": 0,
            "TANGENT": 2,
            "TEXCOORD_0": 3
          },
          "mode": 4,
          "material": 0,
          "indices": 4
        }
      ]
    },
    {
      "name": "Course Satellites_Model_Course Satellites - 1_Texture_0",
      "primitives": [
        {
          "attributes": {
            "NORMAL": 8,
            "POSITION": 7,
            "TANGENT": 9,
            "TEXCOORD_0": 10
          },
          "mode": 4,
          "material": 1,
          "indices": 5
        }
      ]
    },
    {
      "name": "Course Satellites_Model_Course Satellites - 1_Mtl_0",
      "primitives": [
        {
          "attributes": {
            "NORMAL": 12,
            "POSITION": 11,
            "TANGENT": 13,
            "TEXCOORD_0": 14
          },
          "mode": 4,
          "material": 2,
          "indices": 6
        }
      ]
    }
  ],
  "nodes": [
    {
      "name": "Sketchfab_model",
      "rotation": [
        -0.7071067811865475,
        0,
        0,
        0.7071067811865476
      ],
      "children": [
        1
      ]
    },
    {
      "name": "Course Satellites.fbx",
      "rotation": [
        0.7071067811865475,
        0,
        0,
        0.7071067811865476
      ],
      "scale": [
        0.009999999776482582,
        0.009999999776482582,
        0.009999999776482582
      ],
      "children": [
        2
      ]
    },
    {
      "name": "RootNode",
      "children": [
        3
      ]
    },
    {
      "name": "Course Satellites_Model",
      "translation": [
        104.25849151611328,
        -130.3770751953125,
        1.4467597007751465
      ],
      "rotation": [
        -0.7071068387877038,
        0,
        0,
        0.7071067235853866
      ],
      "scale": [
        100,
        100.00000000000001,
        100.00000000000001
      ],
      "children": [
        4,
        5,
        6
      ]
    },
    {
      "name": "Course Satellites_Model_Course Satellites - 2_Mtl_0",
      "mesh": 0
    },
    {
      "name": "Course Satellites_Model_Course Satellites - 1_Texture_0",
      "mesh": 1
    },
    {
      "name": "Course Satellites_Model_Course Satellites - 1_Mtl_0",
      "mesh": 2
    }
  ],
  "scenes": [
    {
      "name": "Sketchfab_Scene",
      "nodes": [
        0
      ]
    }
  ],
  "scene": 0
}