<svg id="logo" xmlns="http://www.w3.org/2000/svg" xmlns:xlink="http://www.w3.org/1999/xlink" viewBox="0 0 10338 5171" shape-rendering="geometricPrecision" text-rendering="geometricPrecision" project-id="01cd8daaed004d299c90d86f4ef23965" export-id="a9f70a7b948943c9b5835fee0c33a0c3" cached="false">
<style><![CDATA[
#logo-u-satellite_to {animation: logo-u-satellite_to__to 7400ms linear infinite normal forwards}@keyframes logo-u-satellite_to__to { 0% {offset-distance: 0%} 25.675676% {offset-distance: 25%} 51.351351% {offset-distance: 50%} 75.675676% {offset-distance: 75%} 100% {offset-distance: 100%}} #logo-u-satellite {animation: logo-u-satellite_c_o 7400ms linear infinite normal forwards}@keyframes logo-u-satellite_c_o { 0% {opacity: 1} 59.459459% {opacity: 1} 62.162162% {opacity: 0;animation-timing-function: cubic-bezier(0,0,0.76,0.485)} 89.189189% {opacity: 0} 91.891892% {opacity: 1} 100% {opacity: 1}} #logo-s-path17_tr {animation: logo-s-path17_tr__tr 7400ms linear infinite normal forwards}@keyframes logo-s-path17_tr__tr { 0% {transform: translate(135.33781px,207.03926px) rotate(720deg);animation-timing-function: cubic-bezier(0.415,0.08,0.115,0.955)} 100% {transform: translate(135.33781px,207.03926px) rotate(28.051948deg)}} #logo-s-path17 {animation: logo-s-path17_f_p 7400ms linear infinite normal forwards}@keyframes logo-s-path17_f_p { 0% {fill: #d2dbed} 100% {fill: #d2dbec}} { 0% {transform: translate(11.12px,29.9px) rotate(-720deg);animation-timing-function: cubic-bezier(0.415,0.08,0.115,0.955)} 100% {transform: translate(11.12px,29.9px) rotate(-28.051948deg)}}
]]></style>
<g id="logo-s-g1" transform="matrix(4.16667 0 0 4.16667-.000001-.000001)" clip-rule="evenodd"><g id="logo-u-logo4" transform="matrix(.926226 0 0 0.926226 31.6747 217.776993)" clip-rule="evenodd"><g id="logo-u-letters" transform="matrix(.830526 0 0 0.830526-344.136993-556.643982)" clip-rule="evenodd"><g id="logo-u-p" transform="translate(327.354004 0)" clip-rule="evenodd"><path id="logo-s-path1" d="M3096.67,883.546c-36.87-36.878-87.85-59.655-144.25-59.655l-360.1-1.084v147.509h360.1c31.45,0,57.48,26.031,57.48,57.484c0,15.19,6.6,49.75-12.86,71.38-9.76,10.85-27.33,20.27-43.6,20.27h-360.09l-1.03,444.16h147.51v-198.44l-.76-98.21h228.86c172.99-8.61,189.48-131.78,189.48-239.16c0-56.4-22.77-107.377-60.74-144.254Z" clip-rule="evenodd" fill="#fff" stroke-linecap="round" stroke-linejoin="round" stroke-miterlimit="1.5"/></g><g id="logo-u-e" transform="matrix(1.87144 0 0 1.87144 69.401901-588.838013)" clip-rule="evenodd"><rect id="logo-s-rect1" width="301.95401" height="78.820999" rx="0" ry="0" transform="translate(1142.26001 754.307983)" clip-rule="evenodd" fill="#fff" fill-rule="evenodd" stroke-linecap="round" stroke-linejoin="round" stroke-miterlimit="1.5"/><g id="logo-s-g2" transform="translate(0 158.511002)" clip-rule="evenodd"><rect id="logo-s-rect2" width="301.95401" height="78.820999" rx="0" ry="0" transform="translate(1142.26001 754.307983)" clip-rule="evenodd" fill="#fff" fill-rule="evenodd" stroke-linecap="round" stroke-linejoin="round" stroke-miterlimit="1.5"/></g><g id="logo-s-g3" transform="translate(0 317.02301)" clip-rule="evenodd"><rect id="logo-s-rect3" width="301.95401" height="78.820999" rx="0" ry="0" transform="translate(1142.26001 754.307983)" clip-rule="evenodd" fill="#fff" fill-rule="evenodd" stroke-linecap="round" stroke-linejoin="round" stroke-miterlimit="1.5"/></g></g><g id="logo-u-s" transform="matrix(1.00147 0 0 1.00147-88.766296-1.20646)" clip-rule="evenodd"><path id="logo-s-path2" d="M1103.13,822.807h-347.079c-100.87,0-182.217,81.347-182.217,182.213c0,66.17,35.793,126.9,93.278,159.44L952.369,1323.9c17.354,9.76,24.946,26.03,24.946,42.3c0,24.95-18.439,49.9-48.808,49.9h-354.673v146.42h373.111c105.205,0,191.975-85.68,191.975-190.89c0-69.42-37.96-133.41-98.7-167.03L750.628,1041.9c-14.1-7.59-19.523-20.61-19.523-32.54c0-19.521,14.1-39.044,37.962-39.044h334.063v-147.509Z" clip-rule="evenodd" fill="#fff" stroke-linecap="round" stroke-linejoin="round" stroke-miterlimit="1.5"/></g></g><g id="logo-u-o" transform="matrix(1.22285 0 0 1.22285-196.276993-96.795502)" clip-rule="evenodd"><g id="logo-u-earth" transform="matrix(.41101 0 0 0.41101 454.471985-18.535999)" clip-rule="evenodd"><g id="logo-s-g4" transform="matrix(1.01484 0 0 1.01484-158.028-185.740005)" clip-rule="evenodd"><circle id="logo-s-circle1" r="603.117004" transform="translate(1377.75 1268.790039)" clip-rule="evenodd" fill="none" fill-rule="evenodd" stroke="#fff" stroke-width="48.509998" stroke-linecap="round" stroke-linejoin="round" stroke-miterlimit="1.5"/></g><g id="logo-s-g5" clip-rule="evenodd"><g id="logo-s-g6" transform="matrix(1.10509 0 0 1.47235-142.901001-809.578003)" clip-rule="evenodd"><path id="logo-s-path3" d="M1359.77,1702.24c-38.69,7.67-78.68,11.7-119.61,11.7-84.99,0-165.95-17.36-239.54-48.72c0,0,94.58-48.27,128.94-55.53c25.48-5.39,51.38,9.63,77.21,11.95c25.81,2.33,56.04-3.91,77.74,1.98c20,5.42,39.91,20.24,52.45,33.34c11.69,12.21,22.81,45.28,22.81,45.28" clip-rule="evenodd" fill="#fff" fill-rule="evenodd" stroke-linecap="round" stroke-linejoin="round" stroke-miterlimit="1.5"/></g><g id="logo-s-g7" transform="matrix(1.18622 0 0 1-116.966003 0)" clip-rule="evenodd"><path id="logo-s-path4" d="M781.878,1507.42c-95.673-108.02-153.785-250.05-153.785-405.54c0-38.41,3.545-76,10.326-112.455c0,0,67.516,11.655,101.271,53.415c16.139,19.97-.337,107.26,15.483,142.31c14.337,31.76,63.33,48.64,79.433,67.97c10.885,13.07,17.268,31.04,17.187,48.04-.09,19.13-14.872,36.61-19.226,69.24-2.893,21.67.413,62.98-4.238,76.7-8.753,25.82-46.451,60.32-46.451,60.32" clip-rule="evenodd" fill="#fff" fill-rule="evenodd" stroke-linecap="round" stroke-linejoin="round" stroke-miterlimit="1.5"/></g><g id="logo-s-g8" transform="translate(-21.0112-12.6531)" clip-rule="evenodd"><path id="logo-s-path5" d="M1578.69,1350.91c-3.46.28-24.8,11.4-34.93,27.65-15.94,25.53-21.87,61.6-22.3,70.82-.39,8.34,11.6,20.92,24.44,17.58c10.37-2.7,21.54-19.84,25.32-26.35c9.54-16.41,23.83-91.03,7.47-89.7Z" clip-rule="evenodd" fill="#fff" fill-rule="evenodd" stroke-linecap="round" stroke-linejoin="round" stroke-miterlimit="1.5"/></g><path id="logo-s-path6" d="M1823.13,915.014c-56.57-176.402-191.06-318.055-362.88-384.375c0,0-60.34,44.211-73.66,71.608s22.57,93.871-6.26,92.775c-66.79-2.54-103.81,7.306-127.17,22.461-19.49,12.644,1.71,50.492-13,68.472-24.06,29.399-173.84,67.855-131.33,107.923c18.96,17.875,83.56-3.069,157.1-5.862c57.82-2.196,122.94,6.737,142.02,12.783c30.42,9.641,25.06,43.761,13.09,64.859-9.87,17.421-65.37,1.692-100.03,16.019-26.72,11.048-63.79-35.509-98.98-36.907-41.88-1.665-117.19-10.821-152.31,26.92-35.36,37.98-109.149,109.32-59.82,200.99c13.3,24.7,62.42,46.8,98.86,58.61c38.38,12.42,107.74-1.25,131.4,15.96c23.65,17.21,2.75,63.59,10.53,87.3c6.84,20.83,31.67,33.48,36.14,54.94c4.67,22.44-18.04,54.88-8.12,79.66c11.03,27.55,41.41,90.07,74.3,85.67c32.88-4.4,99.14-80.71,123-112.09c15.9-20.91,15.62-54.41,20.17-76.18c3.74-17.91-1.33-38.2,7.13-54.42c16.44-31.49,86.73-110.11,91.48-134.53c4.08-20.98-49.4,4.5-62.96-12.02-21.11-25.72-86.07-112.5-52.03-131.66c17.05-9.6,34.16,6.94,50.43,24.36c14.45,15.49,36.93,17.33,49.38,16.46c26.46-1.85,52.39-44.48,47.26-62.56-3.92-13.8-66.09-16.942-65.89-35.419.17-16.232,69.72-25.798,113.51-2.991c28.52,14.856,44.58,81.63,70.17,79.45c30.02-2.56,2.38-75.355,15.46-98.389c12.26-21.606,63.01-39.817,63.01-39.817" clip-rule="evenodd" fill="#fff" fill-rule="evenodd" stroke-linecap="round" stroke-linejoin="round" stroke-miterlimit="1.5"/><path id="logo-s-path7" d="M1180.2,492.716c0,0,8.34,47.77-4.95,68.497-13.28,20.726-54.4,40.186-74.76,55.862-20.37,15.675-74.24,50.1-44.53,64.973c28.05,14.041,93.64-25.85,166.84-43.677c30.92-7.528,66.05-19.499,87.53-30.66c16.29-8.459,32.52-20.243,41.4-36.304c9.63-17.413,16.38-68.177,16.38-68.177-41.27-8.793-84.07-13.42-127.95-13.42-20.23,0-40.23.984-59.96,2.906" clip-rule="evenodd" fill="#fff" fill-rule="evenodd" stroke-linecap="round" stroke-linejoin="round" stroke-miterlimit="1.5"/><g id="logo-s-g9" transform="matrix(1.06792 0 0 1.05663-44.692699-32.688702)" clip-rule="evenodd"><path id="logo-s-path8" d="M924.912,577.244c0,0,62.3,88.323,43.721,144.058-11.511,34.531-95.785,50.431-134.503,76.03-17,11.24-27.994,46.436-54.39,66.353-49.423,37.29-121.705,48.711-121.705,48.711C704.01,771.239,799.941,652.549,924.912,577.244" clip-rule="evenodd" fill="#fff" fill-rule="evenodd" stroke-linecap="round" stroke-linejoin="round" stroke-miterlimit="1.5"/></g></g><g id="logo-s-g10" transform="matrix(1.01484 0 0 1.01484-158.028-185.740005)" clip-rule="evenodd"><circle id="logo-s-circle2" r="603.117004" transform="translate(1377.75 1268.790039)" clip-rule="evenodd" fill="none" fill-rule="evenodd" stroke="#fff" stroke-width="48.509998" stroke-linecap="round" stroke-linejoin="round" stroke-miterlimit="1.5"/></g></g><g id="logo-u-orbit" transform="matrix(1 0 0 0.660383-313.588989-1045.650024)" clip-rule="evenodd"><path id="logo-s-path9" d="M1517.55,2125.59c89.8,22.07,147.67,56.64,147.67,95.48c0,37.81-54.84,71.57-140.58,93.69-65.23,16.83-148.34,26.92-238.81,26.92-98.37,0-188.04-11.93-255.48-31.48-76.117-22.06-123.908-53.84-123.908-89.13c0-36.33,50.627-68.92,130.658-91.04" clip-rule="evenodd" fill="none" fill-rule="evenodd" stroke="#fff" stroke-width="23.879999" stroke-linecap="round" stroke-linejoin="round" stroke-miterlimit="1.5"/></g><g id="logo-u-satellite_to" style="offset-path:path('M1351.629027,419.504642C1351.629027,464.377069,1181.77149,500.753358,972.241602,500.753358C762.711713,500.753358,592.854177,464.377069,592.854177,419.504642C592.854177,374.632216,762.711713,338.255927,972.241602,338.255927C1181.77149,338.255927,1351.629027,374.632216,1351.629027,419.504642');offset-rotate:auto"><g id="logo-u-satellite" transform="rotate(-19.229156) scale(0.551473,0.551473) translate(-949.875252,-849.650802)" clip-rule="evenodd"><g id="logo-s-g11" transform="matrix(1.20588 0 0 1.23214-193.298996-187.108002)" clip-rule="evenodd"><path id="logo-s-path10" d="M982,764.627v87.054c0,5.695-4.724,10.319-10.544,10.319h-46.912c-5.82,0-10.544-4.624-10.544-10.319v-87.054c0-5.695,4.724-10.319,10.544-10.319h46.912c5.82,0,10.544,4.624,10.544,10.319Z" clip-rule="evenodd" fill="#fff" fill-rule="evenodd" stroke-linecap="round" stroke-linejoin="round" stroke-miterlimit="1.5"/></g><g id="logo-s-g12" transform="translate(0-.345951)" clip-rule="evenodd"><path id="logo-s-path11" d="M998,817h-12v-16h12v-6c0-7.727,6.27-14,14-14h100.26c7.73,0,14,6.273,14,14v28c0,7.727-6.27,14-14,14h-100.26c-7.73,0-14-6.273-14-14v-6Z" clip-rule="evenodd" fill="#fff" fill-rule="evenodd" stroke-linecap="round" stroke-linejoin="round" stroke-miterlimit="1.5"/></g><g id="logo-s-g13" transform="matrix(-1 0 0 1 1899.76001-.345951)" clip-rule="evenodd"><path id="logo-s-path12" d="M998,817h-12v-16h12v-6c0-7.727,6.27-14,14-14h100.26c7.73,0,14,6.273,14,14v28c0,7.727-6.27,14-14,14h-100.26c-7.73,0-14-6.273-14-14v-6Z" clip-rule="evenodd" fill="#fff" fill-rule="evenodd" stroke-linecap="round" stroke-linejoin="round" stroke-miterlimit="1.5"/></g><g id="logo-s-g14" transform="translate(1.3776 0)" clip-rule="evenodd"><path id="logo-s-path13" d="M956,867.5v73c0,4.139-3.361,7.5-7.5,7.5s-7.5-3.361-7.5-7.5v-73c0-4.139,3.361-7.5,7.5-7.5s7.5,3.361,7.5,7.5Z" clip-rule="evenodd" fill="#fff" fill-rule="evenodd" stroke-linecap="round" stroke-linejoin="round" stroke-miterlimit="1.5"/></g><g id="logo-s-g15" transform="matrix(-1.1427 0 0-1.95455 2052.51001 2701.679932)" clip-rule="evenodd"><path id="logo-s-path14" d="M908.878,909h112.122c0,12.15-25.099,22-56.061,22s-56.061-9.85-56.061-22Z" clip-rule="evenodd" fill="#fff" fill-rule="evenodd" stroke-linecap="round" stroke-linejoin="round" stroke-miterlimit="1.5"/></g></g></g></g></g></g><rect rx="0" ry="0" transform="translate(0 2585.5)" stroke-width="0"/><g transform="matrix(14.774286 0 0 14.774286 7826.371429 4136.8)"><path opacity="0.7" clip-rule="evenodd" fill="#fff" fill-rule="evenodd"/><g transform="matrix(.3 0 0 0.3-18.12243-25.905895)" opacity="0.7" mask="url(#logo-s-mask1)"><path  fill="#fff"/><mask id="logo-s-mask1" mask-type="alpha" x="-150%" y="-150%" height="400%" width="400%"><g id="logo-s-path17_tr" transform="translate(135.33781,207.03926) rotate(720)"><path id="logo-s-path17" d="M78.37454,207.03926c0-31.45994,25.50332-56.96327,56.96327-56.96327s56.96327,25.50332,56.96327,56.96327-25.50332,56.96327-56.96327,56.96327-56.96327-25.50332-56.96327-56.96327Zm89.23546-4.715c-.16775-.93858-1.05962-1.56734-2-1.41h-.06c-4.15414.71597-8.30501-1.28258-10.33588-4.97651s-1.49439-8.26953,1.33588-11.39349c.33036-.3301.51598-.77798.51598-1.245s-.18561-.9149-.51598-1.245l-.11-.1c-2.70671-2.31865-5.78705-4.16144-9.11-5.45-.43613-.17299-.92328-.16468-1.35326.02308s-.76719.53944-.93674.97692v.06c-1.40364,3.98681-5.18789,6.63916-9.41438,6.59848s-7.95898-2.76539-9.28562-6.77848c-.13404-.44903-.44162-.82607-.85458-1.04757s-.8972-.26916-1.34542-.13243h-.11c-3.26392,1.21388-6.31249,2.94242-9.03,5.12-.37331.28196-.619.70095-.6828,1.16441s.05956.93325.3428,1.30559l.1.12c2.68294,3.2243,3.03751,7.79124.8844,11.39101s-6.34454,5.44763-10.4544,4.60899c-.45624-.10445-.9353-.02286-1.33126.22672s-.67619.6466-.77874,1.10328v.09c-.55386,3.43784-.55386,6.94217,0,10.38.06433.46505.31181.88512.68739,1.16681s.84815.40164,1.31261.33319h.11c4.15414-.71597,8.30501,1.28258,10.33588,4.97651s1.49439,8.26953-1.33588,11.39349c-.33036.3301-.51598.77798-.51598,1.245s.18561.9149.51598,1.245l.11.1c2.70914,2.30768,5.7893,4.14023,9.11,5.42.43613.17299.92328.16468,1.35326-.02308s.76719-.53944.93674-.97692v-.06c1.40815-3.97311,5.18194-6.61524,9.39704-6.57914s7.94308,2.7425,9.28296,6.73914c.13404.44903.44162.82607.85458,1.04757s.8972.26916,1.34542.13243h.11c3.30375-1.22537,6.38706-2.97809,9.13-5.19.37164-.28659.61343-.70974.67164-1.17542s-.07198-.93533-.36164-1.30458l-.1-.12c-2.83001-3.19588-3.28744-7.84789-1.13412-11.53378s6.43037-5.57199,10.60412-4.67622c.93041.23341,1.87421-.33019,2.11-1.26v-.09c.5347-3.37898.5347-6.82102,0-10.2Zm-41.67,4.69c0-5.197,4.213-9.41,9.41-9.41s9.41,4.213,9.41,9.41-4.213,9.41-9.41,9.41-9.41-4.213-9.41-9.41Z" transform="translate(-135.33781,-207.03926)" fill="#d2dbed" stroke-width="0"/></g></mask></g><g transform="translate(11.12,29.9) rotate(-720)"><path  transform="scale(0.3,0.3) translate(-95.902813,-108.465)" opacity="0.7" fill="#fff"/></g></g></svg>
