<?xml version="1.0" encoding="UTF-8" standalone="no"?>
<!DOCTYPE svg PUBLIC "-//W3C//DTD SVG 1.1//EN" "http://www.w3.org/Graphics/SVG/1.1/DTD/svg11.dtd">
<svg width="100%" height="100%" viewBox="0 0 2481 1241" version="1.1" xmlns="http://www.w3.org/2000/svg" xmlns:xlink="http://www.w3.org/1999/xlink" xml:space="preserve" xmlns:serif="http://www.serif.com/" style="fill-rule:evenodd;clip-rule:evenodd;stroke-linecap:round;stroke-linejoin:round;stroke-miterlimit:1.5;">
    <g id="Logo4" transform="matrix(0.926226,0,0,0.926226,31.6747,217.777)">
        <g id="Letters" transform="matrix(0.830526,0,0,0.830526,-344.137,-556.644)">
            <g id="P" transform="matrix(1,0,0,1,327.354,9.09495e-13)">
                <path d="M3096.67,883.546C3059.8,846.668 3008.82,823.891 2952.42,823.891L2592.32,822.807L2592.32,970.316L2952.42,970.316C2983.87,970.316 3009.9,996.347 3009.9,1027.8C3009.9,1042.99 3016.5,1077.55 2997.04,1099.18C2987.28,1110.03 2969.71,1119.45 2953.44,1119.45L2593.35,1119.45L2592.32,1563.61L2739.83,1563.61L2739.83,1365.17L2739.07,1266.96L2967.93,1266.96C3140.92,1258.35 3157.41,1135.18 3157.41,1027.8C3157.41,971.4 3134.64,920.423 3096.67,883.546Z" style="fill:white;fill-rule:nonzero;"/>
            </g>
            <g id="E" transform="matrix(1.87144,0,0,1.87144,69.4019,-588.838)">
                <rect x="1142.26" y="754.308" width="301.954" height="78.821" style="fill:white;"/>
                <g transform="matrix(1,0,0,1,0,158.511)">
                    <rect x="1142.26" y="754.308" width="301.954" height="78.821" style="fill:white;"/>
                </g>
                <g transform="matrix(1,0,0,1,0,317.023)">
                    <rect x="1142.26" y="754.308" width="301.954" height="78.821" style="fill:white;"/>
                </g>
            </g>
            <g id="S" transform="matrix(1.00147,0,0,1.00147,-88.7663,-1.20646)">
                <path d="M1103.13,822.807L756.051,822.807C655.181,822.807 573.834,904.154 573.834,1005.02C573.834,1071.19 609.627,1131.92 667.112,1164.46L952.369,1323.9C969.723,1333.66 977.315,1349.93 977.315,1366.2C977.315,1391.15 958.876,1416.1 928.507,1416.1L573.834,1416.1L573.834,1562.52L946.945,1562.52C1052.15,1562.52 1138.92,1476.84 1138.92,1371.63C1138.92,1302.21 1100.96,1238.22 1040.22,1204.6L750.628,1041.9C736.528,1034.31 731.105,1021.29 731.105,1009.36C731.105,989.839 745.205,970.316 769.067,970.316L1103.13,970.316L1103.13,822.807Z" style="fill:white;fill-rule:nonzero;"/>
            </g>
        </g>
        <g id="O" transform="matrix(1.22285,0,0,1.22285,-196.277,-96.7955)">
            <g id="Earth" transform="matrix(0.41101,0,0,0.41101,454.472,-18.536)">
                <g transform="matrix(1.01484,0,0,1.01484,-158.028,-185.74)">
                    <circle cx="1377.75" cy="1268.79" r="603.117" style="fill:none;stroke:white;stroke-width:48.51px;"/>
                </g>
                <g>
                    <g transform="matrix(1.10509,0,0,1.47235,-142.901,-809.578)">
                        <path d="M1359.77,1702.24C1321.08,1709.91 1281.09,1713.94 1240.16,1713.94C1155.17,1713.94 1074.21,1696.58 1000.62,1665.22C1000.62,1665.22 1095.2,1616.95 1129.56,1609.69C1155.04,1604.3 1180.94,1619.32 1206.77,1621.64C1232.58,1623.97 1262.81,1617.73 1284.51,1623.62C1304.51,1629.04 1324.42,1643.86 1336.96,1656.96C1348.65,1669.17 1359.77,1702.24 1359.77,1702.24" style="fill:white;"/>
                    </g>
                    <g transform="matrix(1.18622,0,0,1,-116.966,0)">
                        <path d="M781.878,1507.42C686.205,1399.4 628.093,1257.37 628.093,1101.88C628.093,1063.47 631.638,1025.88 638.419,989.425C638.419,989.425 705.935,1001.08 739.69,1042.84C755.829,1062.81 739.353,1150.1 755.173,1185.15C769.51,1216.91 818.503,1233.79 834.606,1253.12C845.491,1266.19 851.874,1284.16 851.793,1301.16C851.703,1320.29 836.921,1337.77 832.567,1370.4C829.674,1392.07 832.98,1433.38 828.329,1447.1C819.576,1472.92 781.878,1507.42 781.878,1507.42" style="fill:white;"/>
                    </g>
                    <g transform="matrix(1,0,0,1,-21.0112,-12.6531)">
                        <path d="M1578.69,1350.91C1575.23,1351.19 1553.89,1362.31 1543.76,1378.56C1527.82,1404.09 1521.89,1440.16 1521.46,1449.38C1521.07,1457.72 1533.06,1470.3 1545.9,1466.96C1556.27,1464.26 1567.44,1447.12 1571.22,1440.61C1580.76,1424.2 1595.05,1349.58 1578.69,1350.91Z" style="fill:white;"/>
                    </g>
                    <path d="M1823.13,915.014C1766.56,738.612 1632.07,596.959 1460.25,530.639C1460.25,530.639 1399.91,574.85 1386.59,602.247C1373.27,629.644 1409.16,696.118 1380.33,695.022C1313.54,692.482 1276.52,702.328 1253.16,717.483C1233.67,730.127 1254.87,767.975 1240.16,785.955C1216.1,815.354 1066.32,853.81 1108.83,893.878C1127.79,911.753 1192.39,890.809 1265.93,888.016C1323.75,885.82 1388.87,894.753 1407.95,900.799C1438.37,910.44 1433.01,944.56 1421.04,965.658C1411.17,983.079 1355.67,967.35 1321.01,981.677C1294.29,992.725 1257.22,946.168 1222.03,944.77C1180.15,943.105 1104.84,933.949 1069.72,971.69C1034.36,1009.67 960.571,1081.01 1009.9,1172.68C1023.2,1197.38 1072.32,1219.48 1108.76,1231.29C1147.14,1243.71 1216.5,1230.04 1240.16,1247.25C1263.81,1264.46 1242.91,1310.84 1250.69,1334.55C1257.53,1355.38 1282.36,1368.03 1286.83,1389.49C1291.5,1411.93 1268.79,1444.37 1278.71,1469.15C1289.74,1496.7 1320.12,1559.22 1353.01,1554.82C1385.89,1550.42 1452.15,1474.11 1476.01,1442.73C1491.91,1421.82 1491.63,1388.32 1496.18,1366.55C1499.92,1348.64 1494.85,1328.35 1503.31,1312.13C1519.75,1280.64 1590.04,1202.02 1594.79,1177.6C1598.87,1156.62 1545.39,1182.1 1531.83,1165.58C1510.72,1139.86 1445.76,1053.08 1479.8,1033.92C1496.85,1024.32 1513.96,1040.86 1530.23,1058.28C1544.68,1073.77 1567.16,1075.61 1579.61,1074.74C1606.07,1072.89 1632,1030.26 1626.87,1012.18C1622.95,998.38 1560.78,995.238 1560.98,976.761C1561.15,960.529 1630.7,950.963 1674.49,973.77C1703.01,988.626 1719.07,1055.4 1744.66,1053.22C1774.68,1050.66 1747.04,977.865 1760.12,954.831C1772.38,933.225 1823.13,915.014 1823.13,915.014" style="fill:white;"/>
                    <path d="M1180.2,492.716C1180.2,492.716 1188.54,540.486 1175.25,561.213C1161.97,581.939 1120.85,601.399 1100.49,617.075C1080.12,632.75 1026.25,667.175 1055.96,682.048C1084.01,696.089 1149.6,656.198 1222.8,638.371C1253.72,630.843 1288.85,618.872 1310.33,607.711C1326.62,599.252 1342.85,587.468 1351.73,571.407C1361.36,553.994 1368.11,503.23 1368.11,503.23C1326.84,494.437 1284.04,489.81 1240.16,489.81C1219.93,489.81 1199.93,490.794 1180.2,492.716" style="fill:white;"/>
                    <g transform="matrix(1.06792,0,0,1.05663,-44.6927,-32.6887)">
                        <path d="M924.912,577.244C924.912,577.244 987.212,665.567 968.633,721.302C957.122,755.833 872.848,771.733 834.13,797.332C817.13,808.572 806.136,843.768 779.74,863.685C730.317,900.975 658.035,912.396 658.035,912.396C704.01,771.239 799.941,652.549 924.912,577.244" style="fill:white;"/>
                    </g>
                </g>
                <g transform="matrix(1.01484,0,0,1.01484,-158.028,-185.74)">
                    <circle cx="1377.75" cy="1268.79" r="603.117" style="fill:none;stroke:white;stroke-width:48.51px;"/>
                </g>
            </g>
            <g id="Orbit" transform="matrix(1,0,0,0.660383,-313.589,-1045.65)">
                <path d="M1517.55,2125.59C1607.35,2147.66 1665.22,2182.23 1665.22,2221.07C1665.22,2258.88 1610.38,2292.64 1524.64,2314.76C1459.41,2331.59 1376.3,2341.68 1285.83,2341.68C1187.46,2341.68 1097.79,2329.75 1030.35,2310.2C954.233,2288.14 906.442,2256.36 906.442,2221.07C906.442,2184.74 957.069,2152.15 1037.1,2130.03" style="fill:none;stroke:white;stroke-width:23.88px;"/>
            </g>
            <g id="Satellite" transform="matrix(0.38995,0.38995,-0.38995,0.38995,1238.34,-326.274)">
                <g transform="matrix(1.20588,0,0,1.23214,-193.299,-187.108)">
                    <path d="M982,764.627L982,851.681C982,857.376 977.276,862 971.456,862L924.544,862C918.724,862 914,857.376 914,851.681L914,764.627C914,758.932 918.724,754.308 924.544,754.308L971.456,754.308C977.276,754.308 982,758.932 982,764.627Z" style="fill:white;"/>
                </g>
                <g transform="matrix(1,0,0,1,0,-0.345951)">
                    <path d="M998,817L986,817L986,801L998,801L998,795C998,787.273 1004.27,781 1012,781L1112.26,781C1119.99,781 1126.26,787.273 1126.26,795L1126.26,823C1126.26,830.727 1119.99,837 1112.26,837L1012,837C1004.27,837 998,830.727 998,823L998,817Z" style="fill:white;"/>
                </g>
                <g transform="matrix(-1,0,0,1,1899.76,-0.345951)">
                    <path d="M998,817L986,817L986,801L998,801L998,795C998,787.273 1004.27,781 1012,781L1112.26,781C1119.99,781 1126.26,787.273 1126.26,795L1126.26,823C1126.26,830.727 1119.99,837 1112.26,837L1012,837C1004.27,837 998,830.727 998,823L998,817Z" style="fill:white;"/>
                </g>
                <g transform="matrix(1,0,0,1,1.3776,0)">
                    <path d="M956,867.5L956,940.5C956,944.639 952.639,948 948.5,948C944.361,948 941,944.639 941,940.5L941,867.5C941,863.361 944.361,860 948.5,860C952.639,860 956,863.361 956,867.5Z" style="fill:white;"/>
                </g>
                <g transform="matrix(-1.1427,-1.39941e-16,2.39363e-16,-1.95455,2052.51,2701.68)">
                    <path d="M908.878,909L964.939,909L1021,909C1021,921.15 995.901,931 964.939,931C933.977,931 908.878,921.15 908.878,909Z" style="fill:white;"/>
                </g>
            </g>
        </g>
    </g>
</svg>
