<?xml version="1.0" encoding="UTF-8" standalone="no"?><!DOCTYPE svg PUBLIC "-//W3C//DTD SVG 1.1//EN" "http://www.w3.org/Graphics/SVG/1.1/DTD/svg11.dtd"><svg width="100%" height="100%" viewBox="0 0 100 100" version="1.1" xmlns="http://www.w3.org/2000/svg" xmlns:xlink="http://www.w3.org/1999/xlink" xml:space="preserve" xmlns:serif="http://www.serif.com/" style="fill-rule:evenodd;clip-rule:evenodd;stroke-linecap:round;stroke-linejoin:round;stroke-miterlimit:1.5;"><g><g><circle cx="50" cy="47.916" r="38.542" style="fill:none;stroke:#fff;stroke-width:5px;"/></g><g><path d="M57.531,85.721c-2.436,0.483 -4.954,0.737 -7.532,0.737c-5.351,-0 -10.449,-1.093 -15.083,-3.068c-0,-0 5.955,-3.04 8.119,-3.497c1.604,-0.339 3.235,0.607 4.862,0.753c1.625,0.146 3.529,-0.246 4.895,0.124c1.26,0.342 2.513,1.275 3.303,2.1c0.736,0.769 1.436,2.851 1.436,2.851" style="fill:#fff;stroke:#fff;stroke-width:5px;"/></g><g><path d="M21.141,73.453c-6.024,-6.802 -9.683,-15.745 -9.683,-25.537c-0,-2.418 0.223,-4.785 0.65,-7.081c-0,0 4.251,0.734 6.377,3.364c1.016,1.257 -0.021,6.754 0.975,8.961c0.903,2 3.988,3.063 5.002,4.28c0.685,0.823 1.087,1.955 1.082,3.025c-0.006,1.205 -0.937,2.305 -1.211,4.36c-0.182,1.365 0.026,3.966 -0.267,4.83c-0.551,1.626 -2.925,3.798 -2.925,3.798" style="fill:#fff;stroke:#fff;stroke-width:2.08px;"/></g><g><path d="M71.317,63.598c-0.218,0.018 -1.192,0.741 -1.831,1.764c-1.003,1.608 -1.746,3.856 -1.773,4.437c-0.025,0.525 0.73,1.317 1.539,1.107c0.653,-0.17 1.356,-1.25 1.594,-1.66c0.601,-1.033 1.501,-5.732 0.471,-5.648Z" style="fill:#fff;stroke:#fff;stroke-width:2.08px;"/></g><g><path d="M86.709,36.15c-3.562,-11.109 -12.031,-20.028 -22.851,-24.205c0,0 -3.799,2.784 -4.638,4.51c-0.839,1.725 1.421,5.911 -0.394,5.842c-4.206,-0.16 -6.537,0.46 -8.008,1.414c-1.227,0.796 0.108,3.179 -0.819,4.312c-1.515,1.851 -10.946,4.273 -8.269,6.796c1.193,1.125 5.261,-0.194 9.892,-0.37c3.641,-0.138 7.742,0.425 8.943,0.805c1.916,0.607 2.536,2.847 1.783,4.176c-0.622,1.097 -5.075,0.015 -7.257,0.917c-1.683,0.696 -4.017,-2.236 -6.233,-2.324c-2.637,-0.105 -7.38,-0.681 -9.591,1.695c-2.227,2.392 -6.873,6.884 -3.767,12.657c0.837,1.555 3.931,2.947 6.225,3.69c2.417,0.783 6.785,-0.078 8.274,1.005c1.49,1.084 0.174,4.005 0.663,5.498c0.431,1.311 1.995,2.108 2.276,3.459c0.294,1.413 -1.136,3.456 -0.511,5.016c0.694,1.735 2.607,5.672 4.679,5.395c2.07,-0.277 6.242,-5.082 7.745,-7.058c1.001,-1.317 0.983,-3.426 1.27,-4.797c0.235,-1.128 -0.084,-2.406 0.449,-3.427c1.035,-1.983 5.461,-6.934 5.76,-8.471c0.257,-1.322 -3.11,0.283 -3.964,-0.757c-1.329,-1.62 -6.155,-7.754 -4.011,-8.961c2.028,-1.142 4.806,4.26 6.472,4.144c1.666,-0.116 3.847,-3.704 3.524,-4.843c-0.247,-0.869 -4.162,-1.067 -4.15,-2.23c0.011,-1.022 4.391,-1.625 7.148,-0.189c1.796,0.936 2.807,5.141 4.419,5.003c1.89,-0.161 0.15,-4.745 0.973,-6.195c0.772,-1.361 3.968,-2.507 3.968,-2.507" style="fill:#fff;stroke:#fff;stroke-width:2.08px;"/></g><g><path d="M46.224,9.557c-0,0 0.707,4.695 -0.129,6c-0.837,1.305 -3.609,0.844 -4.891,1.831c-1.282,0.987 -4.675,3.155 -2.804,4.092c1.767,0.884 5.897,-1.628 10.506,-2.751c1.947,-0.474 4.159,-1.228 5.512,-1.93c1.026,-0.533 2.048,-1.275 2.607,-2.286c0.606,-1.097 1.031,-4.294 1.031,-4.294c-2.598,-0.553 -5.293,-0.845 -8.057,-0.845c-1.273,0 -2.533,0.062 -3.775,0.183" style="fill:#fff;stroke:#fff;stroke-width:2.08px;"/></g><g><path d="M30.148,14.88c0,0 3.923,5.562 2.753,9.071c-0.725,2.175 -6.031,3.176 -8.469,4.788c-1.071,0.708 -1.763,2.924 -3.425,4.178c-3.112,2.348 -7.664,3.068 -7.664,3.068c2.895,-8.889 8.936,-16.363 16.805,-21.105" style="fill:#fff;stroke:#fff;stroke-width:2.08px;"/></g></g></svg>