<?xml version="1.0" encoding="UTF-8" standalone="no"?>
<!DOCTYPE svg PUBLIC "-//W3C//DTD SVG 1.1//EN" "http://www.w3.org/Graphics/SVG/1.1/DTD/svg11.dtd">
<svg width="100%" height="100%" viewBox="0 0 24 24" version="1.1" xmlns="http://www.w3.org/2000/svg" xmlns:xlink="http://www.w3.org/1999/xlink" xml:space="preserve" xmlns:serif="http://www.serif.com/" style="fill-rule:evenodd;clip-rule:evenodd;stroke-linecap:round;stroke-linejoin:round;stroke-miterlimit:1.5;">
    <g id="Satellite" transform="matrix(0.0665082,5.91071e-18,-5.91071e-18,0.0665082,-51.1747,-45.5936)">
        <g transform="matrix(1.20588,0,0,1.23214,-193.299,-187.108)">
            <path d="M982,764.627L982,851.681C982,857.376 977.276,862 971.456,862L924.544,862C918.724,862 914,857.376 914,851.681L914,764.627C914,758.932 918.724,754.308 924.544,754.308L971.456,754.308C977.276,754.308 982,758.932 982,764.627Z" style="fill:none;stroke:white;stroke-width:23.13px;"/>
        </g>
        <g transform="matrix(0.965225,3.09049e-18,3.09049e-18,1,39.1654,-0.345951)">
            <path d="M998,817L986,817L986,801L998,801L998,795C998,787.273 1004.27,781 1012,781L1112.26,781C1119.99,781 1126.26,787.273 1126.26,795L1126.26,823C1126.26,830.727 1119.99,837 1112.26,837L1012,837C1004.27,837 998,830.727 998,823L998,817Z" style="fill:none;stroke:white;stroke-width:28.69px;"/>
        </g>
        <g transform="matrix(-0.965225,-3.09049e-18,3.09049e-18,1,1860.59,-0.345951)">
            <path d="M998,817L986,817L986,801L998,801L998,795C998,787.273 1004.27,781 1012,781L1112.26,781C1119.99,781 1126.26,787.273 1126.26,795L1126.26,823C1126.26,830.727 1119.99,837 1112.26,837L1012,837C1004.27,837 998,830.727 998,823L998,817Z" style="fill:none;stroke:white;stroke-width:28.69px;"/>
        </g>
        <g transform="matrix(1,-6.38485e-17,-6.38485e-17,0.281568,1.3776,722.692)">
            <path d="M956,886.637L956,921.363C956,936.065 952.639,948 948.5,948C944.361,948 941,936.065 941,921.363L941,886.637C941,871.935 944.361,860 948.5,860C952.639,860 956,871.935 956,886.637Z" style="fill:none;stroke:white;stroke-width:25.58px;"/>
        </g>
        <g transform="matrix(1,-5.0114e-17,-5.0114e-17,0.43611,1.3776,499.945)">
            <path d="M956,877.197L956,930.803C956,940.294 952.639,948 948.5,948C944.361,948 941,940.294 941,930.803L941,877.197C941,867.706 944.361,860 948.5,860C952.639,860 956,867.706 956,877.197Z" style="fill:none;stroke:white;stroke-width:24.36px;"/>
        </g>
        <g transform="matrix(-1.1427,-1.39941e-16,2.39363e-16,-1.95455,2052.51,2741.52)">
            <path d="M908.878,909L1021,909C1021,921.15 995.901,931 964.939,931C933.977,931 908.878,921.15 908.878,909Z" style="fill:none;stroke:white;stroke-width:15.65px;"/>
        </g>
    </g>
</svg>
